<?xml version="1.0" encoding="utf-8"?>
<!-- Generator: Adobe Illustrator 23.0.2, SVG Export Plug-In . SVG Version: 6.00 Build 0)  -->
<svg version="1.1" id="Layer_1" xmlns="http://www.w3.org/2000/svg" xmlns:xlink="http://www.w3.org/1999/xlink" x="0px" y="0px"
	 viewBox="0 0 201.36 226.77" style="enable-background:new 0 0 201.36 226.77;" xml:space="preserve">
<style type="text/css">
	.st0{display:none;}
	.st1{display:inline;}
	.st2{stroke:#000000;stroke-width:0.5;stroke-linecap:round;stroke-linejoin:round;stroke-miterlimit:10;}
	.st3{fill:none;}
	.st4{fill:#FFFFFF;}
</style>
<g>
	<g>
		<path d="M192.64,81.33c-1.89,2.52-1.64,9.27-2.51,12.28c-4.39,15.16-10.39,14.16-15.12,17c-4.71,2.83-9.12,11.01-11.33,15.1
			c-2.2,4.1-2.83,11.65-6.29,9.13c-3.47-2.52-7.96-5.98-11.65-7.87c-4.96-2.53-24.89-11.45-33.99-10.7
			c-5.37,0.45-9.28,2.87-12.02,3.46c-2.74-0.59-6.65-3.02-12.02-3.46c-9.09-0.75-29.03,8.17-33.99,10.7
			c-3.69,1.89-8.18,5.35-11.64,7.87c-3.46,2.51-4.09-5.04-6.3-9.13c-2.2-4.1-6.6-12.28-11.32-15.11c-4.72-2.84-10.72-1.84-15.11-17
			c-0.87-3.01-0.63-9.76-2.52-12.28c-1.89-2.51-11.96-12.27-3.47,33.99c8.5,46.26,25.81,56.65,25.81,56.65
			C36.41,189.92,66,211.95,66,211.95c13.66,16.28,31.13,13.9,33.74,13.9c2.63,0,20.07,2.36,33.73-13.9c0,0,29.58-22.03,36.82-39.98
			c0,0,17.31-10.38,25.8-56.65C204.59,69.06,194.52,78.82,192.64,81.33z M136.93,179.53c-9.76,5.35-20.14,23.29-25.5,18.89
			c-5.35-4.41-5.66-10.07-4.4-13.53c1.25-3.47-1.89-6.61,5.66-12.91c7.55-6.29,9.59-10.02,7.24-13.53
			c-3.16-4.71-12.63-0.88-19.86-0.94l0,0c-0.09,0-0.19,0-0.28,0c-0.13,0-0.28,0-0.4,0l0,0c-7.24,0.05-16.71-3.78-19.87,0.95
			c-2.34,3.5-0.31,7.24,7.24,13.53c7.56,6.29,4.41,9.44,5.67,12.9c1.26,3.46,0.95,9.13-4.41,13.53
			c-5.35,4.41-15.74-13.53-25.49-18.89c-9.76-5.35-6.93-27.7-5.35-29.27c1.57-1.58,1.57-7.55,14.16-3.77
			c9.05,2.71,21.51-4.65,28.39-12.16c6.88,7.51,19.34,14.87,28.39,12.16c12.59-3.78,12.59,2.2,14.17,3.77
			C143.85,151.84,146.69,174.18,136.93,179.53z"/>
	</g>
	<g>
		<path d="M65.6,27.9v9.08L35.01,50.4L65.6,63.92v9.28L28.1,55.92V45.56L65.6,27.9z"/>
		<path d="M113.56,3.62h8.29L86.72,94.41h-8.29L113.56,3.62z"/>
		<path d="M165.87,50.4l-31.18-13.42V27.9l37.5,17.67v10.36l-37.5,17.27v-9.28L165.87,50.4z"/>
	</g>
</g>
</svg>
